<svg xmlns="http://www.w3.org/2000/svg" viewBox="0 0 512 512">
  <defs>
    <linearGradient id="leaf" x1="0" y1="1" x2="1" y2="0">
      <stop offset="0%" stop-color="#2E7D32" />
      <stop offset="100%" stop-color="#81C784" />
    </linearGradient>
  </defs>

  <!-- Outer organic circle -->
  <circle cx="256" cy="256" r="220" fill="transparent" stroke="#2E7D32" stroke-width="12" />

  <!-- Stem -->
  <path d="M256 380 C250 320 260 260 300 190" fill="none" stroke="#3F6F32" stroke-width="14"
    stroke-linecap="round" />

  <!-- Left leaf -->
  <path d="M258 285 C190 280 135 235 145 165 C210 160 270 200 258 285Z" fill="url(#leaf)" />

  <!-- Right leaf -->
  <path d="M270 250 C275 175 330 125 395 130 C405 195 355 245 270 250Z" fill="#66A84F" />

  <!-- Small bottom leaf -->
  <path d="M255 350 C205 345 175 315 180 275 C225 275 255 300 255 350Z" fill="#4E8B3C" />

  <!-- Organic seed -->
  <ellipse cx="256" cy="390" rx="42" ry="14" fill="#A5C96A" opacity="0.7" />
</svg>